<?xml version="1.0" standalone="no"?><!-- Generator: Gravit.io --><svg xmlns="http://www.w3.org/2000/svg" xmlns:xlink="http://www.w3.org/1999/xlink" style="isolation:isolate" viewBox="618.844 345.35 49.305 49.305" width="49.305" height="49.305"><defs><clipPath id="_clipPath_M6Hq4pkrTMhCnYkuBZ3bd8yg4vh6FoRg"><rect x="618.844" y="345.35" width="49.305" height="49.305"/></clipPath></defs><g clip-path="url(#_clipPath_M6Hq4pkrTMhCnYkuBZ3bd8yg4vh6FoRg)"><path d=" M 621.513 379.647 C 620.214 376.695 619.494 373.432 619.494 370.002 C 619.494 356.755 630.249 346 643.496 346 C 656.743 346 667.498 356.755 667.498 370.002 C 667.498 383.25 656.743 394.005 643.496 394.005 C 633.679 394.005 625.23 388.098 621.513 379.647 Z  M 637.125 363.125 C 637.125 359.607 639.982 356.75 643.5 356.75 C 647.018 356.75 649.875 359.607 649.875 363.125 C 649.875 366.643 647.018 369.5 643.5 369.5 C 639.982 369.5 637.125 366.643 637.125 363.125 Z  M 627.562 388 C 627.544 387.771 627.562 386.659 627.562 386.42 C 627.562 377.624 634.704 370.483 643.5 370.483 C 647.898 370.483 651.882 372.268 654.767 375.153 C 657.652 378.038 659.437 382.022 659.437 386.42 Q 659.437 387.317 659.437 388 C 656.844 390.703 650.142 393.858 644.008 394 C 637.874 394.142 630.687 391.016 627.562 388 Z " fill-rule="evenodd" fill="none" vector-effect="non-scaling-stroke" stroke-width="1.3" stroke="rgb(255,255,255)" stroke-linejoin="miter" stroke-linecap="square" stroke-miterlimit="3"/></g></svg>