<?xml version="1.0" standalone="no"?><!-- Generator: Gravit.io --><svg xmlns="http://www.w3.org/2000/svg" xmlns:xlink="http://www.w3.org/1999/xlink" style="isolation:isolate" viewBox="600 220 155 155" width="155" height="155"><defs><clipPath id="_clipPath_seHQnu4zD7ajS4Nll8BigXkxq1Z073jP"><rect x="600" y="220" width="155" height="155"/></clipPath></defs><g clip-path="url(#_clipPath_seHQnu4zD7ajS4Nll8BigXkxq1Z073jP)"><g><path d=" M 694.85 322.416 C 685.818 329.74 674.539 333.729 662.911 333.712 C 634.851 333.712 612.109 310.966 612.109 282.911 C 612.109 254.856 634.851 232.109 662.911 232.109 C 690.966 232.109 713.707 254.856 713.707 282.911 C 713.726 294.539 709.737 305.819 702.411 314.85 L 742.891 355.33 L 735.33 362.891 L 694.85 322.416 L 694.85 322.416 Z  M 708.364 282.911 C 708.364 308.015 688.013 328.367 662.908 328.367 C 637.803 328.367 617.452 308.015 617.452 282.911 C 617.452 257.807 637.802 237.457 662.906 237.457 C 688.009 237.457 708.36 257.807 708.36 282.911 L 708.364 282.911 Z " fill-rule="evenodd" fill="rgb(255,255,255)"/><rect x="600" y="220" width="155" height="155" transform="matrix(1,0,0,1,0,0)" fill="none"/></g></g></svg>